<svg xmlns="http://www.w3.org/2000/svg" viewBox="0 0 24 24" fill="none">
  <path
    d="M12 2.8l1.4.2.5 2.3 2.1.8 2-1.2 1 1-1.2 2 1 2.1 2.3.5.2 1.4-2.1 1.1.1 2.3 1.9 1.4-.7 1.2-2.3-.3-1.6 1.6.3 2.3-1.2.7-1.4-1.9-2.3.1-1.1 2.1-1.4-.2-.5-2.3-2.1-.8-2 1.2-1-1 1.2-2-1-2.1-2.3-.5-.2-1.4 2.1-1.1-.1-2.3-1.9-1.4.7-1.2 2.3.3 1.6-1.6-.3-2.3 1.2-.7 1.4 1.9 2.3-.1 1.1-2.1z"
    stroke="currentColor"
    stroke-width="1.5"
    stroke-linejoin="round"
  />
  <circle cx="12" cy="12" r="3.8" stroke="currentColor" stroke-width="1.6" />
</svg>
