<svg xmlns="http://www.w3.org/2000/svg" width="640" height="360" viewBox="0 0 640 360" fill="none">
  <defs>
    <linearGradient id="bg-insurance" x1="0" y1="0" x2="1" y2="1">
      <stop offset="0" stop-color="#f6f2ec"/>
      <stop offset="1" stop-color="#e7d8c8"/>
    </linearGradient>
  </defs>
  <rect width="640" height="360" rx="32" fill="url(#bg-insurance)"/>
  <rect x="36" y="36" width="568" height="288" rx="24" fill="#ffffff"/>
  <rect x="60" y="68" width="520" height="28" rx="14" fill="#f6f2ec"/>
  <text x="80" y="88" fill="#0c3b58" font-size="16" font-family="Space Grotesk, sans-serif">
    Insurance Claims Analytics
  </text>
  <text x="80" y="118" fill="#516171" font-size="12" font-family="Space Grotesk, sans-serif">
    Bottlenecks, delay drivers, operational signals
  </text>
  <rect x="70" y="140" width="160" height="80" rx="14" fill="#f6f2ec"/>
  <rect x="250" y="140" width="160" height="80" rx="14" fill="#f6f2ec"/>
  <rect x="430" y="140" width="150" height="80" rx="14" fill="#f6f2ec"/>
  <text x="88" y="175" fill="#0c3b58" font-size="13" font-family="Space Grotesk, sans-serif">Intake delays</text>
  <text x="88" y="196" fill="#7a8794" font-size="11" font-family="Space Grotesk, sans-serif">Process stage</text>
  <text x="268" y="175" fill="#0c3b58" font-size="13" font-family="Space Grotesk, sans-serif">Review cycles</text>
  <text x="268" y="196" fill="#7a8794" font-size="11" font-family="Space Grotesk, sans-serif">Rework signal</text>
  <text x="448" y="175" fill="#0c3b58" font-size="13" font-family="Space Grotesk, sans-serif">Risk flags</text>
  <text x="448" y="196" fill="#7a8794" font-size="11" font-family="Space Grotesk, sans-serif">Claim profile</text>
  <rect x="70" y="235" width="510" height="90" rx="16" fill="#f6f2ec"/>
  <path d="M95 305l40-18 55-10 60-30 70 16 60-22 70-6" stroke="#0c3b58" stroke-width="3" fill="none"/>
  <circle cx="365" cy="261" r="6" fill="#f3c969"/>
</svg>
