<svg xmlns="http://www.w3.org/2000/svg" width="640" height="360" viewBox="0 0 640 360" fill="none">
  <defs>
    <linearGradient id="bg3" x1="0" y1="0" x2="1" y2="1">
      <stop offset="0" stop-color="#f4f1ec"/>
      <stop offset="1" stop-color="#d7d5e8"/>
    </linearGradient>
  </defs>
  <rect width="640" height="360" rx="32" fill="url(#bg3)"/>
  <rect x="36" y="36" width="568" height="288" rx="24" fill="#ffffff"/>
  <rect x="60" y="68" width="520" height="28" rx="14" fill="#f4f1ec"/>
  <text x="80" y="88" fill="#0c3b58" font-size="16" font-family="Space Grotesk, sans-serif">
    Brain Tumor Detection
  </text>
  <text x="80" y="118" fill="#516171" font-size="12" font-family="Space Grotesk, sans-serif">
    CNN-based MRI classification
  </text>
  <rect x="70" y="145" width="230" height="170" rx="18" fill="#f4f1ec"/>
  <circle cx="185" cy="235" r="58" fill="#ffffff"/>
  <circle cx="185" cy="235" r="32" fill="#f3c969"/>
  <rect x="320" y="145" width="260" height="170" rx="18" fill="#f4f1ec"/>
  <text x="340" y="175" fill="#7a8794" font-size="11" font-family="Space Grotesk, sans-serif">Model score</text>
  <rect x="340" y="190" width="210" height="12" rx="6" fill="#cde7f5"/>
  <rect x="340" y="190" width="160" height="12" rx="6" fill="#0c3b58"/>
  <rect x="340" y="220" width="210" height="12" rx="6" fill="#cde7f5"/>
  <rect x="340" y="220" width="140" height="12" rx="6" fill="#f3c969"/>
  <rect x="340" y="250" width="210" height="12" rx="6" fill="#cde7f5"/>
  <rect x="340" y="250" width="170" height="12" rx="6" fill="#0c3b58"/>
</svg>
