<svg xmlns="http://www.w3.org/2000/svg" width="640" height="360" viewBox="0 0 640 360" fill="none">
  <defs>
    <linearGradient id="bg4" x1="0" y1="0" x2="1" y2="1">
      <stop offset="0" stop-color="#f4f1ec"/>
      <stop offset="1" stop-color="#c8e7da"/>
    </linearGradient>
  </defs>
  <rect width="640" height="360" rx="32" fill="url(#bg4)"/>
  <rect x="36" y="36" width="568" height="288" rx="24" fill="#ffffff"/>
  <rect x="60" y="68" width="520" height="28" rx="14" fill="#f4f1ec"/>
  <text x="80" y="88" fill="#0c3b58" font-size="16" font-family="Space Grotesk, sans-serif">
    Customer Churn Prediction
  </text>
  <text x="80" y="118" fill="#516171" font-size="12" font-family="Space Grotesk, sans-serif">
    Retention risk scoring and cohort insights
  </text>
  <rect x="70" y="145" width="250" height="170" rx="18" fill="#f4f1ec"/>
  <path d="M95 290c30-50 70-50 110-100 20-25 40-25 70-10" stroke="#0c3b58" stroke-width="3" fill="none"/>
  <circle cx="200" cy="205" r="6" fill="#f3c969"/>
  <rect x="340" y="145" width="240" height="170" rx="18" fill="#f4f1ec"/>
  <text x="360" y="175" fill="#7a8794" font-size="11" font-family="Space Grotesk, sans-serif">High-risk cohorts</text>
  <rect x="360" y="190" width="190" height="14" rx="7" fill="#cde7f5"/>
  <rect x="360" y="190" width="140" height="14" rx="7" fill="#0c3b58"/>
  <rect x="360" y="220" width="190" height="14" rx="7" fill="#cde7f5"/>
  <rect x="360" y="220" width="120" height="14" rx="7" fill="#f3c969"/>
  <rect x="360" y="250" width="190" height="14" rx="7" fill="#cde7f5"/>
  <rect x="360" y="250" width="150" height="14" rx="7" fill="#0c3b58"/>
</svg>
