<svg xmlns="http://www.w3.org/2000/svg" width="640" height="360" viewBox="0 0 640 360" fill="none">
  <defs>
    <linearGradient id="bg-segmentation" x1="0" y1="0" x2="1" y2="1">
      <stop offset="0" stop-color="#f2f6f0"/>
      <stop offset="1" stop-color="#dfe9d8"/>
    </linearGradient>
  </defs>
  <rect width="640" height="360" rx="32" fill="url(#bg-segmentation)"/>
  <rect x="36" y="36" width="568" height="288" rx="24" fill="#ffffff"/>
  <rect x="60" y="68" width="520" height="28" rx="14" fill="#f2f6f0"/>
  <text x="80" y="88" fill="#0c3b58" font-size="16" font-family="Space Grotesk, sans-serif">
    Customer Segmentation
  </text>
  <text x="80" y="118" fill="#516171" font-size="12" font-family="Space Grotesk, sans-serif">
    Cluster profiles, behavior groups, retention focus
  </text>
  <rect x="70" y="140" width="160" height="80" rx="14" fill="#f2f6f0"/>
  <rect x="250" y="140" width="160" height="80" rx="14" fill="#f2f6f0"/>
  <rect x="430" y="140" width="150" height="80" rx="14" fill="#f2f6f0"/>
  <text x="88" y="175" fill="#0c3b58" font-size="13" font-family="Space Grotesk, sans-serif">High value</text>
  <text x="88" y="196" fill="#7a8794" font-size="11" font-family="Space Grotesk, sans-serif">Segment A</text>
  <text x="268" y="175" fill="#0c3b58" font-size="13" font-family="Space Grotesk, sans-serif">Growth</text>
  <text x="268" y="196" fill="#7a8794" font-size="11" font-family="Space Grotesk, sans-serif">Segment B</text>
  <text x="448" y="175" fill="#0c3b58" font-size="13" font-family="Space Grotesk, sans-serif">At risk</text>
  <text x="448" y="196" fill="#7a8794" font-size="11" font-family="Space Grotesk, sans-serif">Segment C</text>
  <rect x="70" y="235" width="510" height="90" rx="16" fill="#f2f6f0"/>
  <circle cx="140" cy="280" r="16" fill="#0c3b58" opacity="0.15"/>
  <circle cx="210" cy="270" r="12" fill="#0c3b58" opacity="0.2"/>
  <circle cx="300" cy="290" r="18" fill="#0c3b58" opacity="0.18"/>
  <circle cx="380" cy="265" r="14" fill="#0c3b58" opacity="0.2"/>
  <circle cx="470" cy="285" r="20" fill="#0c3b58" opacity="0.16"/>
  <circle cx="530" cy="272" r="10" fill="#0c3b58" opacity="0.22"/>
</svg>
