<svg xmlns="http://www.w3.org/2000/svg" width="640" height="360" viewBox="0 0 640 360" fill="none">
  <defs>
    <linearGradient id="bg2" x1="0" y1="0" x2="1" y2="1">
      <stop offset="0" stop-color="#f4f1ec"/>
      <stop offset="1" stop-color="#f3c969"/>
    </linearGradient>
  </defs>
  <rect width="640" height="360" rx="32" fill="url(#bg2)"/>
  <rect x="36" y="36" width="568" height="288" rx="24" fill="#ffffff"/>
  <rect x="60" y="68" width="520" height="28" rx="14" fill="#f4f1ec"/>
  <text x="80" y="88" fill="#0c3b58" font-size="16" font-family="Space Grotesk, sans-serif">
    Diabetes Risk Prediction
  </text>
  <text x="80" y="118" fill="#516171" font-size="12" font-family="Space Grotesk, sans-serif">
    Early risk screening and feature ranking
  </text>
  <rect x="70" y="145" width="240" height="170" rx="16" fill="#f4f1ec"/>
  <text x="90" y="175" fill="#7a8794" font-size="11" font-family="Space Grotesk, sans-serif">Top drivers</text>
  <rect x="90" y="190" width="190" height="12" rx="6" fill="#cde7f5"/>
  <rect x="90" y="190" width="140" height="12" rx="6" fill="#0c3b58"/>
  <rect x="90" y="215" width="190" height="12" rx="6" fill="#cde7f5"/>
  <rect x="90" y="215" width="120" height="12" rx="6" fill="#f3c969"/>
  <rect x="90" y="240" width="190" height="12" rx="6" fill="#cde7f5"/>
  <rect x="90" y="240" width="160" height="12" rx="6" fill="#0c3b58"/>
  <rect x="90" y="265" width="190" height="12" rx="6" fill="#cde7f5"/>
  <rect x="90" y="265" width="110" height="12" rx="6" fill="#f3c969"/>
  <rect x="330" y="145" width="250" height="170" rx="16" fill="#f4f1ec"/>
  <path d="M360 285l35-35 30 20 40-55 40 35 40-50" stroke="#0c3b58" stroke-width="3" fill="none"/>
  <circle cx="395" cy="250" r="6" fill="#f3c969"/>
</svg>
