<svg xmlns="http://www.w3.org/2000/svg" width="640" height="360" viewBox="0 0 640 360" fill="none">
  <defs>
    <linearGradient id="bg" x1="0" y1="0" x2="1" y2="1">
      <stop offset="0" stop-color="#f4f1ec"/>
      <stop offset="1" stop-color="#cde7f5"/>
    </linearGradient>
  </defs>
  <rect width="640" height="360" rx="32" fill="url(#bg)"/>
  <rect x="36" y="36" width="568" height="288" rx="24" fill="#ffffff"/>
  <rect x="60" y="68" width="520" height="28" rx="14" fill="#f4f1ec"/>
  <text x="80" y="88" fill="#0c3b58" font-size="16" font-family="Space Grotesk, sans-serif">
    Fair Lending ML Audit
  </text>
  <text x="80" y="118" fill="#516171" font-size="12" font-family="Space Grotesk, sans-serif">
    Bias detection, compliance metrics, cohort review
  </text>
  <rect x="70" y="140" width="160" height="80" rx="14" fill="#f4f1ec"/>
  <rect x="250" y="140" width="160" height="80" rx="14" fill="#f4f1ec"/>
  <rect x="430" y="140" width="150" height="80" rx="14" fill="#f4f1ec"/>
  <text x="88" y="175" fill="#0c3b58" font-size="20" font-family="Space Grotesk, sans-serif">12%</text>
  <text x="88" y="196" fill="#7a8794" font-size="11" font-family="Space Grotesk, sans-serif">Disparity gap</text>
  <text x="268" y="175" fill="#0c3b58" font-size="20" font-family="Space Grotesk, sans-serif">0.82</text>
  <text x="268" y="196" fill="#7a8794" font-size="11" font-family="Space Grotesk, sans-serif">Model recall</text>
  <text x="448" y="175" fill="#0c3b58" font-size="20" font-family="Space Grotesk, sans-serif">Q4</text>
  <text x="448" y="196" fill="#7a8794" font-size="11" font-family="Space Grotesk, sans-serif">Audit cycle</text>
  <rect x="70" y="235" width="510" height="90" rx="16" fill="#f4f1ec"/>
  <path d="M95 305l45-28 50 16 60-40 55 26 55-30 70 22" stroke="#0c3b58" stroke-width="3" fill="none"/>
  <circle cx="235" cy="253" r="6" fill="#f3c969"/>
</svg>
